<?xml version="1.0" standalone="no"?>
<!DOCTYPE svg PUBLIC "-//W3C//DTD SVG 20010904//EN"
 "http://www.w3.org/TR/2001/REC-SVG-20010904/DTD/svg10.dtd">
<svg version="1.0" xmlns="http://www.w3.org/2000/svg"
 width="512.000000pt" height="512.000000pt" viewBox="0 0 512.000000 512.000000"
 preserveAspectRatio="xMidYMid meet">

<g transform="translate(0.000000,512.000000) scale(0.100000,-0.100000)"
fill="#000000" stroke="none">
<path d="M2445 4124 c-445 -43 -810 -179 -1225 -457 -342 -228 -730 -590 -997
-928 -66 -84 -78 -114 -63 -154 23 -60 290 -367 476 -545 512 -492 1039 -796
1567 -902 97 -20 143 -23 347 -23 258 0 331 9 535 66 596 168 1257 643 1765
1269 91 112 100 128 100 172 0 39 -67 130 -245 328 -514 572 -1120 976 -1674
1114 -179 45 -452 73 -586 60z m439 -233 c373 -76 765 -275 1156 -587 146
-117 493 -456 608 -595 40 -48 72 -90 72 -94 0 -13 -156 -190 -282 -321 -423
-435 -880 -745 -1313 -888 -328 -109 -673 -125 -986 -46 -459 117 -921 399
-1373 840 -152 148 -376 395 -376 415 0 21 201 244 371 410 530 519 1054 809
1604 889 17 2 116 3 220 2 149 -2 213 -8 299 -25z"/>
<path d="M2415 3689 c-422 -54 -780 -362 -900 -774 -94 -326 -27 -687 179
-954 103 -133 231 -238 381 -312 310 -152 648 -152 960 1 588 289 781 1041
406 1583 -61 88 -192 217 -280 277 -220 148 -486 212 -746 179z m345 -220 c51
-12 126 -39 185 -69 218 -108 374 -291 450 -530 35 -110 45 -294 22 -415 -67
-355 -347 -635 -702 -702 -121 -23 -305 -13 -415 22 -404 128 -662 514 -619
925 12 123 33 192 88 305 88 178 218 308 396 396 193 95 381 116 595 68z"/>
</g>
</svg>
