<?xml version="1.0" standalone="no"?>
<!DOCTYPE svg PUBLIC "-//W3C//DTD SVG 20010904//EN"
 "http://www.w3.org/TR/2001/REC-SVG-20010904/DTD/svg10.dtd">
<svg version="1.0" xmlns="http://www.w3.org/2000/svg"
 width="512.000000pt" height="512.000000pt" viewBox="0 0 512.000000 512.000000"
 preserveAspectRatio="xMidYMid meet">

<g transform="translate(0.000000,512.000000) scale(0.100000,-0.100000)"
fill="#000000" stroke="none">
<path d="M1195 4793 c-11 -2 -56 -11 -100 -19 -362 -69 -701 -308 -898 -634
-210 -347 -252 -789 -113 -1177 46 -131 156 -313 258 -430 28 -32 507 -543
1065 -1135 1001 -1064 1015 -1078 1052 -1078 37 0 71 32 1151 1076 612 592
1137 1104 1167 1137 248 278 374 671 334 1040 -65 598 -491 1072 -1081 1202
-116 26 -375 31 -502 10 -376 -61 -723 -288 -924 -604 -22 -33 -41 -61 -44
-60 -3 0 -26 32 -52 72 -200 307 -541 530 -907 591 -87 15 -352 21 -406 9z
m380 -164 c238 -39 469 -160 646 -338 106 -106 159 -179 234 -321 83 -158 127
-158 210 0 74 141 146 238 245 334 177 171 396 282 640 327 82 15 304 15 391
0 589 -99 1019 -604 1019 -1196 0 -261 -88 -523 -246 -730 -38 -51 -442 -448
-1153 -1136 -602 -583 -1097 -1059 -1100 -1058 -14 2 -2008 2132 -2060 2202
-235 308 -304 730 -180 1101 190 569 761 913 1354 815z"/>
</g>
</svg>
