<?xml version="1.0" standalone="no"?>
<!DOCTYPE svg PUBLIC "-//W3C//DTD SVG 20010904//EN"
 "http://www.w3.org/TR/2001/REC-SVG-20010904/DTD/svg10.dtd">
<svg version="1.0" xmlns="http://www.w3.org/2000/svg"
 width="512.000000pt" height="512.000000pt" viewBox="0 0 512.000000 512.000000"
 preserveAspectRatio="xMidYMid meet">

<g transform="translate(0.000000,512.000000) scale(0.100000,-0.100000)"
fill="#000000" stroke="none">
<path d="M274 4770 c-104 -21 -193 -93 -241 -195 -39 -84 -39 -194 -1 -277 31
-67 95 -133 164 -168 42 -21 62 -25 144 -25 89 0 99 2 158 34 34 19 64 32 66
30 2 -2 168 -722 370 -1599 202 -877 381 -1653 398 -1723 40 -169 37 -167 239
-167 l146 0 12 -42 c42 -142 181 -262 334 -288 77 -14 172 -2 245 30 96 43
186 140 223 240 l22 60 434 0 c404 0 434 -1 439 -18 42 -125 127 -228 226
-274 247 -117 511 4 602 275 5 15 20 17 134 17 147 0 186 10 208 52 19 36 5
89 -29 106 -13 7 -82 13 -166 14 l-144 3 -12 42 c-31 105 -139 223 -242 265
-83 33 -243 33 -326 0 -103 -42 -211 -160 -242 -265 l-12 -42 -436 -3 -436 -2
-15 54 c-34 117 -158 236 -285 272 -87 26 -210 16 -293 -23 -93 -44 -161 -110
-202 -197 -19 -39 -37 -79 -40 -89 -5 -16 -17 -17 -108 -15 l-103 3 -57 245
c-32 135 -57 251 -58 258 0 9 340 12 1670 12 1649 0 1670 0 1690 20 11 11 22
30 25 42 8 35 345 2229 345 2247 0 9 -9 27 -20 41 l-19 25 -2122 5 -2122 5
-74 315 c-40 173 -77 347 -82 386 -19 160 -112 271 -256 309 -64 16 -88 17
-151 5z m2876 -1395 c364 -115 600 -436 600 -815 0 -379 -234 -697 -600 -816
-77 -25 -99 -28 -240 -28 -133 -1 -166 2 -233 22 -297 86 -521 313 -603 612
-25 91 -25 329 0 420 82 298 313 533 598 609 109 30 112 30 258 26 113 -2 149
-7 220 -30z"/>
<path d="M2734 3221 c-305 -82 -514 -352 -514 -661 0 -199 97 -406 247 -525
136 -109 296 -161 467 -152 283 14 516 188 614 459 24 66 27 86 27 218 0 132
-3 152 -27 218 -74 204 -237 365 -433 429 -110 36 -278 42 -381 14z m650 -600
c19 -18 26 -35 26 -61 0 -26 -7 -43 -26 -61 l-26 -24 -441 -3 c-406 -2 -445
-1 -477 15 -41 21 -58 60 -44 101 5 15 24 34 44 45 32 16 71 17 477 15 l441
-3 26 -24z"/>
</g>
</svg>
